<svg xmlns="http://www.w3.org/2000/svg" viewBox="0 0 512 512" role="img" aria-labelledby="title desc">
  <title>Pièce de 1 dollar canadien</title>
  <desc>Illustration dorée rappelant une pièce de 1 dollar canadienne.</desc>
  <defs>
    <radialGradient id="coinShade" cx="35%" cy="32%" r="70%">
      <stop offset="0%" stop-color="#f6e29c"/>
      <stop offset="55%" stop-color="#e5c35c"/>
      <stop offset="85%" stop-color="#c0912b"/>
      <stop offset="100%" stop-color="#946b1d"/>
    </radialGradient>
    <radialGradient id="coinHighlight" cx="30%" cy="28%" r="60%">
      <stop offset="0%" stop-color="#ffffff" stop-opacity="0.65"/>
      <stop offset="70%" stop-color="#ffffff" stop-opacity="0"/>
    </radialGradient>
    <linearGradient id="rimGradient" x1="0" x2="0" y1="0" y2="1">
      <stop offset="0%" stop-color="#f1d787"/>
      <stop offset="50%" stop-color="#d6ac43"/>
      <stop offset="100%" stop-color="#b38327"/>
    </linearGradient>
  </defs>
  <circle cx="256" cy="256" r="248" fill="url(#coinShade)"/>
  <circle cx="256" cy="256" r="240" fill="none" stroke="url(#rimGradient)" stroke-width="18"/>
  <circle cx="256" cy="256" r="210" fill="none" stroke="#f3e3b7" stroke-width="6" opacity="0.45"/>
  <g fill="#f6e6a6" opacity="0.8">
    <path d="M128 302c40-36 96-42 152-18 12 5 42 18 70 14 10-2 18-6 26-12-6 40-34 72-79 88-66 22-136-12-169-72z"/>
    <path d="M180 260c12-32 42-54 76-56 26-2 52 8 70 24-20 2-40 5-60 10-30 8-58 16-86 22z"/>
  </g>
  <path d="M172 152c0-34 26-60 68-60 40 0 68 26 68 60 0 52-44 74-68 126-24-52-68-74-68-126z" fill="#f9e8b0" opacity="0.85"/>
  <path d="M240 312c4-34 20-58 40-82 10-12 26-26 32-40 6 18 6 38 0 56-12 38-40 62-72 66z" fill="#dcb35a" opacity="0.55"/>
  <path d="M132 352c18 42 68 74 124 74 62 0 116-36 134-88-26 16-52 22-84 16-38-8-72-30-108-36-26-4-46 4-66 34z" fill="#b8872d" opacity="0.3"/>
  <circle cx="256" cy="256" r="220" fill="url(#coinHighlight)"/>
  <text x="256" y="430" text-anchor="middle" font-family="'Crimson Text', serif" font-size="72" fill="#f7eac3" stroke="#a7741e" stroke-width="4" paint-order="stroke">1 $</text>
</svg>
