<svg xmlns="http://www.w3.org/2000/svg" viewBox="0 0 400 400">
  <defs>
    <radialGradient id="g1" cx="50%" cy="38%" r="60%">
      <stop offset="0%" stop-color="#f8f1c6"/>
      <stop offset="45%" stop-color="#e7c870"/>
      <stop offset="78%" stop-color="#cba04d"/>
      <stop offset="100%" stop-color="#a37832"/>
    </radialGradient>
    <radialGradient id="g2" cx="45%" cy="35%" r="55%">
      <stop offset="0%" stop-color="#fff6d3" stop-opacity="0.9"/>
      <stop offset="70%" stop-color="#d8b25c" stop-opacity="0.8"/>
      <stop offset="100%" stop-color="#a37c34" stop-opacity="0.9"/>
    </radialGradient>
    <linearGradient id="rim" x1="0%" y1="0%" x2="100%" y2="100%">
      <stop offset="0%" stop-color="#f2d68c"/>
      <stop offset="50%" stop-color="#c0933d"/>
      <stop offset="100%" stop-color="#8d6424"/>
    </linearGradient>
  </defs>
  <circle cx="200" cy="200" r="190" fill="url(#g1)" stroke="url(#rim)" stroke-width="18"/>
  <circle cx="200" cy="200" r="140" fill="url(#g2)" stroke="#c79a4d" stroke-width="8"/>
  <g fill="#8a6324">
    <text x="200" y="220" font-family="'Segoe UI', 'Helvetica', 'Arial', sans-serif" font-weight="700" font-size="150" text-anchor="middle">
      1$
    </text>
  </g>
  <g fill="#dcbf7c" opacity="0.55">
    <path d="M200 45c-18 0-30 5-44 13s-24 18-34 30-17 27-20 42c-4 19 0 36 6 54s14 34 19 52c3 12 4 25 0 36s-13 19-21 28c-5 7-8 13-7 20s5 13 12 16c7 2 14 0 20-4s11-10 16-16c12-16 21-36 23-56s-3-41-11-60-17-37-21-56 0-39 11-54 27-26 45-32c7-2 15-4 23-5 2-1-6-3-12-3z"/>
  </g>
</svg>
