<svg width="800" height="800" viewBox="0 0 800 800" xmlns="http://www.w3.org/2000/svg">
  <defs>
    <radialGradient id="bg" cx="50%" cy="40%" r="70%">
      <stop offset="0%" stop-color="#4bd7ff" stop-opacity="0.4"/>
      <stop offset="45%" stop-color="#3a4edb" stop-opacity="0.3"/>
      <stop offset="100%" stop-color="#02060f" stop-opacity="1"/>
    </radialGradient>
    <linearGradient id="stroke1" x1="0%" y1="0%" x2="100%" y2="100%">
      <stop offset="0%" stop-color="#6de5ff"/>
      <stop offset="50%" stop-color="#bb8bff"/>
      <stop offset="100%" stop-color="#fbd6ff"/>
    </linearGradient>
    <linearGradient id="stroke2" x1="100%" y1="0%" x2="0%" y2="100%">
      <stop offset="0%" stop-color="#86f3ff"/>
      <stop offset="50%" stop-color="#3b90ff"/>
      <stop offset="100%" stop-color="#00ffd8"/>
    </linearGradient>
    <filter id="glow" x="-50%" y="-50%" width="200%" height="200%">
      <feGaussianBlur stdDeviation="20" result="coloredBlur"/>
      <feMerge>
        <feMergeNode in="coloredBlur"/>
        <feMergeNode in="SourceGraphic"/>
      </feMerge>
    </filter>
  </defs>
  <rect width="800" height="800" fill="#03060f"/>
  <rect width="800" height="800" fill="url(#bg)"/>
  <g filter="url(#glow)">
    <circle cx="400" cy="400" r="260" fill="none" stroke="url(#stroke1)" stroke-width="9" opacity="0.8"/>
    <circle cx="400" cy="400" r="200" fill="none" stroke="url(#stroke2)" stroke-width="5" opacity="0.7"/>
    <circle cx="400" cy="400" r="140" fill="none" stroke="#86f3ff" stroke-width="3" opacity="0.65"/>
    <polygon points="400,140 560,240 560,480 400,660 240,560 240,320" fill="none" stroke="#9be7ff" stroke-width="6" opacity="0.7"/>
    <polygon points="400,190 520,270 520,450 400,610 280,530 280,350" fill="none" stroke="#ff9ff2" stroke-width="3" opacity="0.75"/>
    <line x1="400" y1="90" x2="400" y2="710" stroke="#69e1ff" stroke-width="4" opacity="0.35"/>
    <line x1="120" y1="280" x2="680" y2="520" stroke="#6ae2ff" stroke-width="3" opacity="0.3"/>
    <line x1="160" y1="540" x2="640" y2="260" stroke="#d4a1ff" stroke-width="3" opacity="0.3"/>
  </g>
  <g>
    <circle cx="400" cy="400" r="20" fill="#e0f7ff" opacity="0.9"/>
    <circle cx="400" cy="400" r="50" fill="none" stroke="#b0faff" stroke-width="2" opacity="0.6"/>
  </g>
  <text x="400" y="760" font-family="'Montserrat', sans-serif" font-size="48" text-anchor="middle" fill="#e0f2ff" opacity="0.8">Crystal Resonance</text>
</svg>
