<svg xmlns="http://www.w3.org/2000/svg" viewBox="0 0 512 512">
  <defs>
    <radialGradient id="bg" cx="50%" cy="40%" r="70%">
      <stop offset="0%" stop-color="#1a2949" stop-opacity="0.95"/>
      <stop offset="55%" stop-color="#0a1328" stop-opacity="0.92"/>
      <stop offset="100%" stop-color="#020512" stop-opacity="1"/>
    </radialGradient>
    <radialGradient id="glow" cx="50%" cy="50%" r="50%">
      <stop offset="0%" stop-color="#d8fbff" stop-opacity="0.9"/>
      <stop offset="45%" stop-color="#87f5ff" stop-opacity="0.65"/>
      <stop offset="100%" stop-color="#1f9fff" stop-opacity="0"/>
    </radialGradient>
    <radialGradient id="glow2" cx="50%" cy="50%" r="50%">
      <stop offset="0%" stop-color="#f9ffbf" stop-opacity="0.9"/>
      <stop offset="55%" stop-color="#c6ff8a" stop-opacity="0.62"/>
      <stop offset="100%" stop-color="#2fb78f" stop-opacity="0"/>
    </radialGradient>
  </defs>
  <rect width="512" height="512" fill="url(#bg)"/>
  <g opacity="0.6">
    <circle cx="120" cy="360" r="24" fill="url(#glow)"/>
    <circle cx="420" cy="130" r="36" fill="url(#glow2)"/>
    <circle cx="280" cy="240" r="30" fill="url(#glow)"/>
    <circle cx="360" cy="360" r="32" fill="url(#glow)"/>
    <circle cx="180" cy="160" r="28" fill="url(#glow2)"/>
    <circle cx="80" cy="220" r="18" fill="url(#glow)"/>
    <circle cx="460" cy="260" r="22" fill="url(#glow2)"/>
  </g>
  <g fill="#9ad7ff" opacity="0.7">
    <circle cx="120" cy="360" r="6"/>
    <circle cx="420" cy="130" r="7"/>
    <circle cx="280" cy="240" r="8"/>
    <circle cx="360" cy="360" r="6"/>
    <circle cx="180" cy="160" r="7"/>
    <circle cx="80" cy="220" r="5"/>
    <circle cx="460" cy="260" r="5"/>
  </g>
  <path d="M140 440c40-14 78-20 116-20s76 6 116 20" stroke="#3cc6ff" stroke-width="8" stroke-linecap="round" stroke-opacity="0.25" fill="none"/>
</svg>
