<svg width="512" height="512" viewBox="0 0 512 512" xmlns="http://www.w3.org/2000/svg" role="img" aria-label="Firefly Meadow">
  <defs>
    <radialGradient id="bg" cx="50%" cy="40%" r="70%">
      <stop offset="0%" stop-color="#0d142f"/>
      <stop offset="80%" stop-color="#0a0b1d"/>
    </radialGradient>
    <radialGradient id="glow" cx="35%" cy="35%" r="60%">
      <stop offset="0%" stop-color="#ffffff" stop-opacity="0.95"/>
      <stop offset="40%" stop-color="#b5f7ff" stop-opacity="0.9"/>
      <stop offset="100%" stop-color="#52ffc8" stop-opacity="0.15"/>
    </radialGradient>
    <filter id="blur" x="-40%" y="-40%" width="180%" height="180%">
      <feGaussianBlur stdDeviation="6"/>
    </filter>
  </defs>
  <rect width="512" height="512" fill="url(#bg)"/>
  <g fill="#89ffe1" opacity="0.65">
    <circle cx="60" cy="220" r="6"/>
    <circle cx="120" cy="120" r="5"/>
    <circle cx="180" cy="340" r="7"/>
    <circle cx="260" cy="90" r="6"/>
    <circle cx="330" cy="260" r="6"/>
    <circle cx="420" cy="160" r="5"/>
    <circle cx="440" cy="320" r="7"/>
    <circle cx="360" cy="420" r="6"/>
    <circle cx="220" cy="420" r="5"/>
  </g>
  <g>
    <circle cx="256" cy="256" r="96" fill="url(#glow)" filter="url(#blur)"/>
    <circle cx="156" cy="196" r="68" fill="url(#glow)" filter="url(#blur)"/>
    <circle cx="356" cy="316" r="72" fill="url(#glow)" filter="url(#blur)"/>
  </g>
  <g stroke="#b4f4ff" stroke-width="3" stroke-linecap="round" opacity="0.9">
    <path d="M180 180 C 200 190, 220 190, 240 180"/>
    <path d="M310 300 C 330 310, 350 310, 370 300"/>
    <path d="M210 340 C 230 350, 250 350, 270 340"/>
  </g>
  <text x="50%" y="85%" text-anchor="middle" fill="#e7fbff" font-family="'Poppins', 'Montserrat', sans-serif" font-size="44" font-weight="700" letter-spacing="2">Firefly Meadow</text>
</svg>
