<svg width="640" height="480" viewBox="0 0 640 480" xmlns="http://www.w3.org/2000/svg" role="img" aria-label="Flowing lines concept">
  <defs>
    <linearGradient id="bg" x1="0%" y1="0%" x2="100%" y2="100%">
      <stop offset="0%" stop-color="#0c1a24"/>
      <stop offset="60%" stop-color="#08111a"/>
      <stop offset="100%" stop-color="#04080f"/>
    </linearGradient>
    <linearGradient id="stroke" x1="0%" y1="0%" x2="100%" y2="0%">
      <stop offset="0%" stop-color="#9fdcff" stop-opacity="0.9"/>
      <stop offset="50%" stop-color="#7de0c3" stop-opacity="0.9"/>
      <stop offset="100%" stop-color="#c0f1ff" stop-opacity="0.9"/>
    </linearGradient>
  </defs>
  <rect width="640" height="480" fill="url(#bg)" rx="22" ry="22"/>
  <g stroke="url(#stroke)" stroke-width="3" fill="none" opacity="0.9">
    <path d="M-10 430 C 80 400, 120 240, 210 200 S 360 190, 470 160 610 110, 660 120"/>
    <path d="M-30 360 C 70 330, 120 210, 220 170 S 370 160, 480 130 600 90, 670 100" opacity="0.85"/>
    <path d="M-20 310 C 60 280, 140 200, 230 160 S 380 150, 490 120 620 80, 660 70" opacity="0.8"/>
    <path d="M-40 260 C 50 230, 130 170, 240 140 S 390 140, 500 120 620 110, 660 120" opacity="0.7"/>
    <path d="M-15 210 C 70 200, 140 180, 250 155 S 400 150, 520 135 640 120, 675 130" opacity="0.65"/>
    <path d="M-35 160 C 50 150, 140 150, 250 140 S 400 145, 520 140 650 140, 690 160" opacity="0.6"/>
  </g>
  <text x="36" y="74" fill="#b6f09c" font-family="Inter, Arial, sans-serif" font-size="34" font-weight="700">Flow Lines</text>
  <text x="36" y="108" fill="#9cc3ff" font-family="Inter, Arial, sans-serif" font-size="18">Coherent motion, space button wind boost</text>
</svg>
