<svg xmlns="http://www.w3.org/2000/svg" viewBox="0 0 512 512">
  <defs>
    <radialGradient id="bg" cx="50%" cy="35%" r="80%">
      <stop offset="0%" stop-color="#9cf9ff" stop-opacity="0.8"/>
      <stop offset="50%" stop-color="#3f7fd1" stop-opacity="0.75"/>
      <stop offset="100%" stop-color="#091122"/>
    </radialGradient>
    <linearGradient id="beam" x1="0%" y1="0%" x2="100%" y2="100%">
      <stop offset="0%" stop-color="#9dfbff" stop-opacity="0.85"/>
      <stop offset="100%" stop-color="#4a65ff" stop-opacity="0.2"/>
    </linearGradient>
  </defs>
  <rect width="512" height="512" fill="url(#bg)"/>
  <g fill="none" stroke-linecap="round">
    <g stroke="url(#beam)">
      <circle cx="256" cy="256" r="210" stroke-width="2" opacity="0.5"/>
      <circle cx="256" cy="256" r="160" stroke-width="2" opacity="0.35"/>
      <circle cx="256" cy="256" r="110" stroke-width="2" opacity="0.25"/>
    </g>
    <g stroke="#b0fffb" stroke-opacity="0.6">
      <path d="M256 96 L310 202 L425 220 L340 302 L362 418 L256 360 L150 418 L172 302 L87 220 L202 202 Z" stroke-width="3" fill="rgba(132,225,255,0.18)"/>
      <path d="M256 140 L296 216 L380 228 L320 288 L336 368 L256 328 L176 368 L192 288 L132 228 L216 216 Z" stroke-width="2" fill="rgba(132,225,255,0.15)"/>
      <path d="M256 184 L282 230 L334 238 L298 274 L306 324 L256 300 L206 324 L214 274 L178 238 L230 230 Z" stroke-width="1.5" fill="rgba(132,225,255,0.12)"/>
    </g>
    <g stroke="#a0f9ff" stroke-opacity="0.45">
      <path d="M256 68 L328 204" stroke-width="6"/>
      <path d="M256 68 L184 204" stroke-width="6"/>
      <path d="M256 444 L328 308" stroke-width="6"/>
      <path d="M256 444 L184 308" stroke-width="6"/>
      <path d="M68 256 L204 328" stroke-width="6"/>
      <path d="M68 256 L204 184" stroke-width="6"/>
      <path d="M444 256 L308 328" stroke-width="6"/>
      <path d="M444 256 L308 184" stroke-width="6"/>
    </g>
  </g>
  <g fill="#d1ffff" fill-opacity="0.6">
    <circle cx="256" cy="256" r="18"/>
    <circle cx="196" cy="206" r="10"/>
    <circle cx="316" cy="206" r="10"/>
    <circle cx="196" cy="306" r="10"/>
    <circle cx="316" cy="306" r="10"/>
  </g>
</svg>
