<svg xmlns="http://www.w3.org/2000/svg" viewBox="0 0 960 540" fill="none">
  <defs>
    <linearGradient id="bg" x1="0" y1="0" x2="1" y2="1">
      <stop offset="0%" stop-color="#0d111a" />
      <stop offset="100%" stop-color="#141c29" />
    </linearGradient>
    <radialGradient id="glow" cx="50%" cy="50%" r="60%">
      <stop offset="0%" stop-color="#33ffd2" stop-opacity="0.9" />
      <stop offset="40%" stop-color="#ff5ca8" stop-opacity="0.45" />
      <stop offset="100%" stop-color="#0d111a" stop-opacity="0" />
    </radialGradient>
  </defs>
  <rect width="960" height="540" fill="url(#bg)" />
  <circle cx="260" cy="200" r="220" fill="url(#glow)" />
  <circle cx="700" cy="320" r="220" fill="url(#glow)" transform="rotate(-12 700 320)" />
  <path d="M150 320 C240 260 320 180 440 200 C560 220 620 320 740 300" stroke="#fefefe" stroke-width="22" stroke-linecap="round" stroke-opacity="0.5" fill="none" />
  <path d="M180 340 C280 320 340 260 440 260" stroke="#ff5ca8" stroke-width="34" stroke-linecap="round" stroke-opacity="0.7" fill="none" />
  <path d="M360 340 C460 300 540 280 660 330" stroke="#33ffd2" stroke-width="30" stroke-linecap="round" stroke-opacity="0.85" fill="none" />
  <path d="M420 180 L410 270" stroke="#ffb347" stroke-width="18" stroke-linecap="round" stroke-opacity="0.8" />
  <path d="M520 190 L510 300" stroke="#9be7ff" stroke-width="20" stroke-linecap="round" stroke-opacity="0.8" />
  <g fill="#fefefe">
    <circle cx="200" cy="140" r="8" opacity="0.8" />
    <circle cx="240" cy="160" r="6" opacity="0.7" />
    <circle cx="300" cy="120" r="10" opacity="0.85" />
    <circle cx="620" cy="120" r="7" opacity="0.9" />
    <circle cx="680" cy="150" r="9" opacity="0.75" />
    <circle cx="760" cy="200" r="6" opacity="0.7" />
  </g>
  <text x="70" y="470" fill="#fefefe" font-family="'Arial Black', 'Segoe UI Black', sans-serif" font-size="82" font-weight="900" letter-spacing="2" opacity="0.96">Graffiti Spray</text>
  <text x="74" y="474" fill="#33ffd2" font-family="'Arial Black', 'Segoe UI Black', sans-serif" font-size="82" font-weight="900" letter-spacing="2" opacity="0.35">Graffiti Spray</text>
</svg>
