<svg width="640" height="360" viewBox="0 0 640 360" fill="none" xmlns="http://www.w3.org/2000/svg">
  <defs>
    <linearGradient id="bg" x1="0" y1="0" x2="1" y2="1">
      <stop offset="0%" stop-color="#0f172a"/>
      <stop offset="100%" stop-color="#0b3a42"/>
    </linearGradient>
    <radialGradient id="glow" cx="50%" cy="50%" r="60%">
      <stop offset="0%" stop-color="#6ee7ff" stop-opacity="0.9"/>
      <stop offset="50%" stop-color="#38bdf8" stop-opacity="0.35"/>
      <stop offset="100%" stop-color="#1d4ed8" stop-opacity="0"/>
    </radialGradient>
  </defs>
  <rect width="640" height="360" fill="url(#bg)"/>
  <circle cx="170" cy="190" r="110" fill="url(#glow)" opacity="0.7"/>
  <circle cx="460" cy="150" r="120" fill="url(#glow)" opacity="0.6"/>
  <circle cx="420" cy="240" r="80" fill="url(#glow)" opacity="0.6"/>
  <g stroke="#a5f3fc" stroke-width="3" stroke-linecap="round">
    <path d="M150 105c28 18 42 40 48 70" opacity="0.8"/>
    <path d="M480 90c-20 16-35 46-34 74" opacity="0.8"/>
    <path d="M310 230c-6 34-24 59-48 74" opacity="0.6"/>
  </g>
  <g fill="#e0f2fe" fill-opacity="0.9">
    <circle cx="120" cy="150" r="6"/>
    <circle cx="520" cy="120" r="7"/>
    <circle cx="360" cy="120" r="5"/>
    <circle cx="260" cy="280" r="5"/>
    <circle cx="510" cy="210" r="6"/>
    <circle cx="430" cy="280" r="7"/>
    <circle cx="190" cy="250" r="5"/>
  </g>
  <text x="320" y="188" text-anchor="middle" fill="#e2e8f0" font-size="44" font-family="'Inter', 'Segoe UI', sans-serif" font-weight="700">
    Number as Event
  </text>
  <text x="320" y="226" text-anchor="middle" fill="#cbd5e1" font-size="18" font-family="'Inter', 'Segoe UI', sans-serif">
    Every gaze sparks a counted bloom
  </text>
</svg>
