<svg xmlns="http://www.w3.org/2000/svg" viewBox="0 0 512 512" role="img" aria-labelledby="title desc">
  <title id="title">Number as Event icon</title>
  <desc id="desc">Radiating pulses, lights, and droplets representing sensory number events.</desc>
  <defs>
    <radialGradient id="bg" cx="50%" cy="50%" r="70%">
      <stop offset="0%" stop-color="#0f172a"/>
      <stop offset="100%" stop-color="#020617"/>
    </radialGradient>
    <radialGradient id="bloom" cx="50%" cy="50%" r="50%">
      <stop offset="0%" stop-color="#e0f2fe" stop-opacity="0.95"/>
      <stop offset="100%" stop-color="#38bdf8" stop-opacity="0"/>
    </radialGradient>
    <radialGradient id="pulse" cx="50%" cy="50%" r="50%">
      <stop offset="0%" stop-color="#fcd34d" stop-opacity="0.9"/>
      <stop offset="100%" stop-color="#f59e0b" stop-opacity="0"/>
    </radialGradient>
  </defs>
  <rect width="512" height="512" fill="url(#bg)"/>
  <circle cx="256" cy="256" r="170" fill="url(#bloom)"/>
  <circle cx="188" cy="182" r="92" fill="url(#pulse)" opacity="0.9"/>
  <circle cx="336" cy="322" r="76" fill="#38bdf8" opacity="0.28"/>
  <circle cx="356" cy="210" r="54" fill="#f472b6" opacity="0.35"/>
  <circle cx="208" cy="334" r="58" fill="#22d3ee" opacity="0.3"/>
  <g fill="none" stroke="#a5b4fc" stroke-width="10" stroke-linecap="round">
    <path d="M256 126v32"/><path d="M256 354v32"/><path d="M126 256h32"/><path d="M354 256h32"/>
    <path d="M190 190l-22-22"/><path d="M322 322l22 22"/><path d="M322 190l22-22"/><path d="M190 322l-22 22"/>
  </g>
  <g fill="#bae6fd" stroke="#67e8f9" stroke-width="6" stroke-linejoin="round" opacity="0.9">
    <circle cx="132" cy="268" r="18"/>
    <circle cx="394" cy="238" r="16"/>
    <circle cx="232" cy="108" r="14"/>
    <circle cx="262" cy="420" r="14"/>
  </g>
  <g fill="#f8fafc" stroke="#38bdf8" stroke-width="4" stroke-linejoin="round" opacity="0.94">
    <path d="M266 222c0 14-10 26-22 26s-22-12-22-26 10-26 22-26 22 12 22 26z"/>
    <path d="M318 280c0 14-10 26-22 26s-22-12-22-26 10-26 22-26 22 12 22 26z"/>
    <path d="M214 298c0 12-9 22-20 22s-20-10-20-22 9-22 20-22 20 10 20 22z"/>
  </g>
  <g fill="#bfdbfe" stroke="#7dd3fc" stroke-width="6" opacity="0.8">
    <path d="M104 188c18 8 18 28 0 36-18-8-18-28 0-36z"/>
    <path d="M408 314c18 8 18 28 0 36-18-8-18-28 0-36z"/>
  </g>
</svg>
