<svg width="320" height="200" viewBox="0 0 320 200" xmlns="http://www.w3.org/2000/svg" role="img" aria-label="Four seasons shadow box">
  <defs>
    <linearGradient id="bg" x1="0" y1="0" x2="0" y2="1">
      <stop offset="0%" stop-color="#0b1324" />
      <stop offset="100%" stop-color="#05070f" />
    </linearGradient>
    <linearGradient id="pane" x1="0" y1="0" x2="0" y2="1">
      <stop offset="0%" stop-color="#4c7ca4" stop-opacity="0.9" />
      <stop offset="100%" stop-color="#122134" stop-opacity="0.9" />
    </linearGradient>
  </defs>
  <rect width="320" height="200" fill="url(#bg)" rx="20"/>
  <rect x="18" y="18" width="284" height="164" fill="#000" opacity="0.35" rx="20"/>
  <rect x="26" y="26" width="268" height="148" fill="url(#pane)" rx="18" stroke="rgba(255,255,255,0.05)"/>
  <g stroke-linecap="round" stroke-linejoin="round" fill="none">
    <g stroke="#1c2c3c" stroke-width="16" opacity="0.7">
      <path d="M60 140 C80 120 95 90 120 86" />
      <path d="M200 132 C210 120 230 100 250 92" />
    </g>
    <g stroke="#f0d18c" stroke-width="6" opacity="0.85">
      <path d="M80 110 q20 -30 40 -20" />
      <path d="M220 118 q18 -26 32 -18" />
    </g>
    <g stroke="#f6c266" stroke-width="10" opacity="0.55">
      <path d="M150 60 q14 -20 36 -10" />
      <path d="M150 60 q-10 16 -26 24" />
    </g>
    <g stroke="#b9d9ff" stroke-width="8" opacity="0.65">
      <path d="M96 72 q-8 12 -2 24" />
      <path d="M206 64 q-6 10 -6 24" />
    </g>
  </g>
  <text x="160" y="184" fill="#dce7ff" font-family="'Nunito', 'Segoe UI', sans-serif" font-size="16" text-anchor="middle" opacity="0.85">Shadow Box - 4 Seasons</text>
</svg>
