<svg width="600" height="360" viewBox="0 0 600 360" xmlns="http://www.w3.org/2000/svg" role="img" aria-label="Théâtre d'ombres des saisons">
  <defs>
    <linearGradient id="bg" x1="0%" y1="0%" x2="0%" y2="100%">
      <stop offset="0%" stop-color="#0a223a" />
      <stop offset="100%" stop-color="#06080d" />
    </linearGradient>
    <radialGradient id="glow" cx="50%" cy="45%" r="60%">
      <stop offset="0%" stop-color="#f7d9a6" stop-opacity="0.8" />
      <stop offset="100%" stop-color="#0f131c" stop-opacity="0.1" />
    </radialGradient>
  </defs>
  <rect width="600" height="360" fill="url(#bg)" />
  <rect x="32" y="20" width="536" height="320" rx="28" fill="#05060a" opacity="0.9" />
  <rect x="60" y="40" width="480" height="280" rx="24" fill="url(#glow)" />
  <g fill="#c3e6ff" opacity="0.8">
    <circle cx="150" cy="160" r="12" />
    <circle cx="180" cy="130" r="8" />
    <circle cx="210" cy="170" r="10" />
    <circle cx="440" cy="200" r="9" />
    <circle cx="410" cy="150" r="7" />
  </g>
  <path d="M120 250 Q180 200 260 210 T420 190" stroke="#d88f42" stroke-width="24" fill="none" stroke-linecap="round" opacity="0.4" />
  <path d="M120 250 Q180 210 240 170" stroke="#ad5a2a" stroke-width="12" fill="none" stroke-linecap="round" opacity="0.55" />
  <path d="M240 190 Q300 180 360 130" stroke="#6cb5ff" stroke-width="16" fill="none" stroke-linecap="round" opacity="0.5" />
  <text x="300" y="300" font-family="'Nunito', 'Segoe UI', sans-serif" font-size="34" fill="#e7f5ff" text-anchor="middle">Théâtre d'ombres</text>
  <text x="300" y="330" font-family="'Nunito', 'Segoe UI', sans-serif" font-size="20" fill="#c6ddff" text-anchor="middle">Les 4 saisons</text>
</svg>
