<svg width="640" height="360" viewBox="0 0 640 360" xmlns="http://www.w3.org/2000/svg">
  <defs>
    <linearGradient id="sky" x1="0" y1="0" x2="0" y2="1">
      <stop offset="0%" stop-color="#091637"/>
      <stop offset="100%" stop-color="#122653"/>
    </linearGradient>
    <linearGradient id="aurora" x1="0" y1="0" x2="1" y2="0">
      <stop offset="0%" stop-color="#7ffaff" stop-opacity="0.2"/>
      <stop offset="50%" stop-color="#b8faff" stop-opacity="0.5"/>
      <stop offset="100%" stop-color="#89f0ff" stop-opacity="0.2"/>
    </linearGradient>
  </defs>
  <rect width="640" height="360" fill="url(#sky)"/>
  <path d="M0 120 Q90 160 180 110 T360 130 T520 110 T640 140 V210 H0 Z" fill="url(#aurora)"/>
  <g fill="#8cf4ff" opacity="0.85">
    <path d="M80 50 L95 170 L110 50 Z"/>
    <path d="M150 40 L168 200 L186 40 Z" opacity="0.75"/>
    <path d="M230 52 L244 190 L258 52 Z" opacity="0.6"/>
    <path d="M320 36 L340 205 L360 36 Z"/>
    <path d="M420 48 L435 195 L450 48 Z" opacity="0.7"/>
    <path d="M510 44 L530 180 L550 44 Z" opacity="0.6"/>
  </g>
  <text x="50%" y="88%" fill="#e1fbff" font-family="'Inter',sans-serif" font-size="30" text-anchor="middle">Starry Icicle Orchestra</text>
</svg>
