<svg width="640" height="480" viewBox="0 0 640 480" xmlns="http://www.w3.org/2000/svg" role="img" aria-labelledby="title desc">
  <title id="title">Story prototype illustration</title>
  <desc id="desc">An abstract night forest with glowing lights and a floating book.</desc>
  <defs>
    <linearGradient id="bg" x1="0%" y1="0%" x2="100%" y2="100%">
      <stop offset="0%" stop-color="#0f172a" />
      <stop offset="50%" stop-color="#1d4ed8" />
      <stop offset="100%" stop-color="#22d3ee" />
    </linearGradient>
    <radialGradient id="glow" cx="50%" cy="40%" r="60%">
      <stop offset="0%" stop-color="#fbbf24" stop-opacity="0.8" />
      <stop offset="60%" stop-color="#fbbf24" stop-opacity="0.2" />
      <stop offset="100%" stop-color="#0f172a" stop-opacity="0" />
    </radialGradient>
  </defs>
  <rect width="640" height="480" fill="url(#bg)" />
  <circle cx="480" cy="160" r="180" fill="url(#glow)" />
  <g fill="none" stroke="#f8fafc" stroke-opacity="0.28" stroke-width="6">
    <path d="M120 380 C140 320 200 240 260 220" />
    <path d="M520 360 C480 280 420 220 360 200" />
  </g>
  <g transform="translate(200 180)">
    <rect x="0" y="0" width="240" height="160" rx="20" fill="#0b1220" opacity="0.85" />
    <rect x="12" y="12" width="216" height="136" rx="16" fill="#1e3a8a" opacity="0.92" />
    <rect x="24" y="36" width="120" height="16" rx="8" fill="#38bdf8" opacity="0.9" />
    <rect x="24" y="70" width="168" height="12" rx="6" fill="#bae6fd" opacity="0.7" />
    <rect x="24" y="100" width="180" height="12" rx="6" fill="#bae6fd" opacity="0.5" />
  </g>
  <g fill="#bae6fd" opacity="0.5">
    <circle cx="80" cy="120" r="6" />
    <circle cx="140" cy="60" r="4" />
    <circle cx="300" cy="80" r="5" />
    <circle cx="420" cy="60" r="6" />
    <circle cx="560" cy="120" r="5" />
    <circle cx="520" cy="240" r="4" />
    <circle cx="120" cy="260" r="5" />
  </g>
</svg>
